# xmcd
#
# Track frame offsets:
#	150
#	11850
#	22507
#	34845
#	44107
#	53640
#	65807
#	75795
#
# Disc length: 1144 seconds
#
# Revision: 0
# Processed by: cddbd v1.5.1PL0 Copyright (c) Steve Scherf et al.
# Submitted via: dBpowerAMP V4.0
#
DISCID=5b047608
DTITLE=Charlie Moore and Bill Napier - Truckin' Favorites
DYEAR=1995
DGENRE=Bluegrass
TTITLE0=Long White Line
TTITLE1=Bluegrass Truck Driver
TTITLE2=Hot Rod Kids and Women Drivers
TTITLE3=Guitar Pickin' Truck Driver
TTITLE4=Truck Driver's Queen
TTITLE5=Pinball Blues
TTITLE6=Lonesome Truck Driver
TTITLE7=A Truck Driver's Romance
EXTD=
EXTT0=
EXTT1=
EXTT2=
EXTT3=
EXTT4=
EXTT5=
EXTT6=
EXTT7=
PLAYORDER=
